<svg width="180" height="180" viewBox="0 0 180 180" fill="none" xmlns="http://www.w3.org/2000/svg">
<circle cx="90" cy="90" r="90" fill="#FF0051"/>
<path d="M150.5 86.4019C152.5 87.5566 152.5 90.4434 150.5 91.5981L92 125.373C90 126.528 87.5 125.084 87.5 122.775V55.225C87.5 52.9156 90 51.4722 92 52.6269L150.5 86.4019Z" fill="white"/>
<path d="M69.213 129.319L69.1864 108.07L33.8458 68.4379L46.0597 63.9421L64.3745 85.6467C65.3532 86.8387 66.4412 88.3278 67.6386 90.1141C68.8142 91.841 69.7505 93.2848 70.4477 94.4454C70.2855 93.0879 70.092 91.3707 69.8674 89.2937C69.621 87.1574 69.4839 85.3182 69.4562 83.7762L68.7935 55.5741L80.5616 51.2424L80.8919 125.02L69.213 129.319Z" fill="white"/>
</svg>